<svg width="40" height="40" viewBox="0 0 40 40" fill="none" xmlns="http://www.w3.org/2000/svg">
<g id="Vector">
<path d="M20.0079 10.0121C14.4523 10.0121 9.84912 14.5359 9.84912 20.1708C9.84912 25.8057 14.3729 30.3295 20.0079 30.3295C25.6428 30.3295 30.1666 25.7264 30.1666 20.1708C30.1666 14.6152 25.5634 10.0121 20.0079 10.0121ZM20.0079 26.6787C16.4364 26.6787 13.4999 23.7422 13.4999 20.1708C13.4999 16.5994 16.4364 13.6629 20.0079 13.6629C23.5793 13.6629 26.5158 16.5994 26.5158 20.1708C26.5158 23.7422 23.5793 26.6787 20.0079 26.6787Z" fill="white"/>
<path d="M30.5634 12.0756C31.8345 12.0756 32.865 11.0451 32.865 9.77398C32.865 8.50285 31.8345 7.47239 30.5634 7.47239C29.2923 7.47239 28.2618 8.50285 28.2618 9.77398C28.2618 11.0451 29.2923 12.0756 30.5634 12.0756Z" fill="white"/>
<path d="M36.5158 3.8216C34.4523 1.67874 31.5158 0.567627 28.1825 0.567627H11.8333C4.92849 0.567627 0.325317 5.1708 0.325317 12.0756V28.3454C0.325317 31.7581 1.43643 34.6946 3.65865 36.8375C5.80151 38.901 8.65865 39.9327 11.9126 39.9327H28.1031C31.5158 39.9327 34.3729 38.8216 36.4364 36.8375C38.5793 34.774 39.6904 31.8375 39.6904 28.4248V12.0756C39.6904 8.74223 38.5793 5.88509 36.5158 3.8216ZM36.1983 28.4248C36.1983 30.8851 35.3253 32.8692 33.8968 34.2184C32.4682 35.5676 30.4841 36.2819 28.1031 36.2819H11.9126C9.53167 36.2819 7.54754 35.5676 6.11897 34.2184C4.6904 32.7899 3.97611 30.8057 3.97611 28.3454V12.0756C3.97611 9.69461 4.6904 7.71049 6.11897 6.28191C7.46818 4.93271 9.53167 4.21842 11.9126 4.21842H28.2618C30.6428 4.21842 32.6269 4.93271 34.0555 6.36128C35.4047 7.78985 36.1983 9.77398 36.1983 12.0756V28.4248Z" fill="white"/>
</g>
</svg>
